<?xml version="1.0" encoding="iso-8859-1"?>
<!-- Generator: Adobe Illustrator 19.0.0, SVG Export Plug-In . SVG Version: 6.00 Build 0)  -->
<svg version="1.1" id="Capa_1" xmlns="http://www.w3.org/2000/svg" xmlns:xlink="http://www.w3.org/1999/xlink" x="0px" y="0px"
	 viewBox="0 0 58 58" style="enable-background:new 0 0 58 58;" xml:space="preserve">
<g id="XMLID_90_">
	<path id="XMLID_122_" style="fill:#F4BF1A;" d="M43.918,44.203C33.805,54.316,18.832,56.016,9.069,48.646
		c0.599,0.793,1.25,1.556,1.969,2.275c9.567,9.567,26.188,8.459,37.123-2.475c10.934-10.935,12.042-27.556,2.474-37.123
		c-0.718-0.719-1.481-1.37-2.274-1.969C55.731,19.117,54.031,34.09,43.918,44.203"/>
	<path id="XMLID_121_" style="fill:#FFD949;" d="M46.393,7.08c9.568,9.568,8.46,26.188-2.475,37.123
		C32.983,55.138,16.363,56.246,6.795,46.678C-2.773,37.11-1.665,20.49,9.27,9.555C20.205-1.38,36.825-2.488,46.393,7.08"/>
	<path id="XMLID_89_" style="fill:#F4BF1A;" d="M23.091,49.188c-5.243,0-10.025-1.896-13.468-5.338
		c-7.993-7.993-6.883-22.109,2.475-31.466c4.965-4.966,11.525-7.813,17.998-7.813c5.243,0,10.025,1.896,13.468,5.338
		c7.993,7.993,6.883,22.109-2.475,31.466C36.125,46.339,29.565,49.188,23.091,49.188"/>
	<path id="XMLID_119_" style="fill:#DCA815;" d="M44.596,43.467l4.256,4.256c0.461-0.49,0.906-0.989,1.329-1.499l-4.249-4.249
		C45.509,42.484,45.056,42.977,44.596,43.467"/>
	<path id="XMLID_118_" style="fill:#DCA815;" d="M40.895,46.837l4.258,4.258c0.525-0.407,1.039-0.837,1.544-1.284l-4.251-4.251
		C41.939,46.007,41.421,46.429,40.895,46.837"/>
	<path id="XMLID_117_" style="fill:#DCA815;" d="M47.746,39.545l4.255,4.255c0.386-0.57,0.752-1.148,1.095-1.733l-4.246-4.246
		C48.506,38.406,48.131,38.978,47.746,39.545"/>
	<path id="XMLID_116_" style="fill:#DCA815;" d="M50.29,35.018l4.26,4.259c0.301-0.662,0.573-1.331,0.822-2.005l-4.254-4.254
		C50.869,33.691,50.59,34.357,50.29,35.018"/>
	<path id="XMLID_115_" style="fill:#DCA815;" d="M36.62,49.633l4.256,4.256c0.603-0.326,1.201-0.668,1.789-1.04l-4.259-4.258
		C37.818,48.962,37.223,49.307,36.62,49.633"/>
	<path id="XMLID_114_" style="fill:#DCA815;" d="M31.683,51.767l4.255,4.255c0.693-0.228,1.384-0.478,2.068-0.761l-4.254-4.253
		C33.068,51.29,32.378,51.54,31.683,51.767"/>
	<path id="XMLID_113_" style="fill:#DCA815;" d="M24.555,53.125l4.259,4.259c0.851-0.048,1.706-0.137,2.561-0.267l-4.261-4.261
		C26.259,52.985,25.406,53.078,24.555,53.125"/>
	<path id="XMLID_112_" style="fill:#DCA815;" d="M16.688,52.328l4.27,4.27c1.14,0.306,2.306,0.527,3.49,0.663l-4.268-4.269
		C18.995,52.854,17.829,52.636,16.688,52.328"/>
	<path id="XMLID_111_" style="fill:#DCA815;" d="M52.368,28.611l4.252,4.252c0.162-0.818,0.287-1.637,0.373-2.455l-4.257-4.257
		C52.65,26.971,52.529,27.791,52.368,28.611"/>
	<path id="XMLID_88_" style="fill:#DCA815;" d="M57.103,26.275c-0.057-1.079-0.176-2.148-0.37-3.198l-4.281-4.281
		c0.199,1.065,0.352,2.142,0.409,3.237L57.103,26.275z"/>
	<path id="XMLID_109_" style="fill:#D1D4D2;" d="M5.715,57c-2.757,0-5-2.243-5-5c0-0.552,0.448-1,1-1c0.552,0,1,0.448,1,1
		c0,1.654,1.346,3,3,3c0.552,0,1,0.448,1,1C6.715,56.552,6.267,57,5.715,57"/>
	<path id="XMLID_108_" style="fill:#D1D4D2;" d="M55.715,7c-0.552,0-1-0.448-1-1c0-2.206-1.346-4-3-4c-0.552,0-1-0.448-1-1
		c0-0.552,0.448-1,1-1c2.757,0,5,2.691,5,6C56.715,6.552,56.267,7,55.715,7"/>
	<path id="XMLID_107_" style="fill:#D1D4D2;" d="M45.715,56c-0.552,0-1-0.448-1-1c0-0.552,0.448-1,1-1c4.962,0,9-4.038,9-9
		c0-0.552,0.448-1,1-1c0.552,0,1,0.448,1,1C56.715,51.065,51.78,56,45.715,56"/>
	<path id="XMLID_106_" style="fill:#D1D4D2;" d="M52.715,58c-0.552,0-1-0.448-1-1c0-0.552,0.448-1,1-1c1.626,0,3-0.916,3-2
		c0-0.552,0.448-1,1-1c0.552,0,1,0.448,1,1C57.715,56.206,55.472,58,52.715,58"/>
	<path id="XMLID_105_" style="fill:#FFD949;" d="M38.226,22.875c-0.239-5.821-4.527-8.069-11.098-8.076
		c-0.291,0-0.577,0.009-0.858,0.028c-2.047,0.135-3.953-0.19-5.331-1.122c-0.556-0.377-1-0.772-1.281-1.185
		c-0.127-0.188-0.48-0.058-0.499,0.182c-0.032,0.414-0.054,0.899-0.046,1.433c0.028,2.023-0.173,1.722-1.405,3.631
		c-0.681,1.056-1.225,2.24-1.63,3.513c-0.896,0.366-1.625,1.151-1.834,2.117l-0.276,1.281c-0.25,1.158,0.302,2.248,1.291,2.733
		c0.151,2.882,1.216,5.46,3.774,7.265l-0.321,1.742c-0.083,0.45-0.408,0.802-0.835,0.907l-5.97,1.455
		c-1.552,0.456-2.739,1.821-3.131,3.59L8.683,42.79c0.305,0.358,0.603,0.722,0.941,1.059c3.442,3.443,8.225,5.339,13.468,5.339
		c4.467,0,8.976-1.358,12.974-3.831l-6.81-5.255c-0.446-0.345-0.681-0.872-0.611-1.368l0.273-1.958
		c3.822-0.673,6.344-3.058,7.814-6.34c1.714-0.197,3.097-1.321,3.242-2.841l0.159-1.674C40.254,24.656,39.452,23.508,38.226,22.875"
		/>
</g>
<g>
</g>
<g>
</g>
<g>
</g>
<g>
</g>
<g>
</g>
<g>
</g>
<g>
</g>
<g>
</g>
<g>
</g>
<g>
</g>
<g>
</g>
<g>
</g>
<g>
</g>
<g>
</g>
<g>
</g>
</svg>
