<?xml version="1.0" encoding="iso-8859-1"?>
<!-- Generator: Adobe Illustrator 19.0.0, SVG Export Plug-In . SVG Version: 6.00 Build 0)  -->
<svg version="1.1" id="Capa_1" xmlns="http://www.w3.org/2000/svg" xmlns:xlink="http://www.w3.org/1999/xlink" x="0px" y="0px"
	 viewBox="0 0 512.001 512.001" style="enable-background:new 0 0 512.001 512.001;" xml:space="preserve">
<path style="fill:#DBD9DC;" d="M484.63,288.169l-44.602-17.547H281.711l-44.602,17.547c-17.102,6.728-28.071,23.544-27.335,41.907
	l5.415,135.195c0.309,7.719,6.656,13.817,14.381,13.817h262.6c7.725,0,14.072-6.098,14.381-13.817l5.415-135.195
	C512.701,311.713,501.732,294.897,484.63,288.169z"/>
<polygon style="fill:#5D5360;" points="350.361,320.77 341.155,479.088 380.584,479.088 371.378,320.77 "/>
<path style="fill:#4B3F4E;" d="M367,327.966h-12.26c-4.563,0-8.262-3.699-8.262-8.262v-20.523h28.785v20.523
	C375.262,324.267,371.563,327.966,367,327.966z"/>
<rect x="310.5" y="212.823" style="fill:#B48764;" width="100.75" height="86.36"/>
<path style="fill:#966D50;" d="M310.496,239.698c14.271,10.277,31.699,16.305,50.373,16.305c18.675,0,36.103-6.027,50.374-16.305
	v-26.872H310.496V239.698z"/>
<path style="fill:#5C414B;" d="M360.869,33.145c-35.929,1.942-56.371,21.589-56.371,21.589s-29.985,0-29.985,35.981
	c0,28.785,7.196,57.344,7.196,57.344h165.514C461.617,68.9,427.435,29.547,360.869,33.145z"/>
<path style="fill:#503441;" d="M317.692,118.362c-26.436-33.052-13.193-63.629-13.193-63.629s-29.985,0-29.985,35.981
	c0,28.785,7.196,57.344,7.196,57.344h35.981v-29.696H317.692z"/>
<path style="fill:#C39772;" d="M440.028,140.863h-7.196l-9.483-17.306c-1.497-2.733-4.615-4.132-7.68-3.571
	c-47.394,8.669-78.541-2.347-90.343-7.861c-3.092-1.445-6.772-0.495-8.759,2.28c-7.283,10.172-15.318,18.189-20.138,22.625
	c-2.675,2.463-6.148,3.834-9.785,3.834h-5.178c-0.004,0-0.007,0.002-0.011,0.002c-0.788,0.014-1.594,0.098-2.414,0.256
	c-7.004,1.353-11.723,8.049-11.723,15.182v5.215c0,6.883,4.407,13.377,11.11,14.942c1.51,0.353,2.979,0.452,4.386,0.34
	c3.578-0.286,6.702,2.318,7.346,5.849c6.118,33.53,35.412,58.961,70.71,58.961s64.592-25.431,70.71-58.961
	c0.621-3.4,3.556-5.877,6.967-5.805h1.483c7.949,0,14.393-6.444,14.393-14.393v-7.196
	C454.421,147.306,447.977,140.863,440.028,140.863z"/>
<path style="fill:#B48764;" d="M317.692,169.648v-56.342c-0.392,0.346-0.81,0.658-1.125,1.099
	c-7.283,10.172-15.318,18.189-20.138,22.625c-2.675,2.463-6.148,3.834-9.785,3.834h-5.178c-0.004,0-0.007,0.002-0.011,0.002
	c-0.788,0.014-1.594,0.098-2.414,0.256c-7.004,1.353-11.723,8.049-11.723,15.182v5.215c0,6.883,4.407,13.377,11.11,14.942
	c1.51,0.353,2.979,0.452,4.386,0.34c3.578-0.286,6.702,2.318,7.346,5.849c6.118,33.53,35.412,58.961,70.71,58.961
	c4.893,0,9.653-0.534,14.269-1.465C342.353,233.43,317.692,204.419,317.692,169.648z"/>
<g>
	<path style="fill:#EDEBED;" d="M360.869,299.407l-52.503-45.94c-2.851-2.495-7.148-2.352-9.827,0.327l-16.828,16.828l33.439,50.159
		c5.038,7.557,15.73,8.616,22.152,2.194L360.869,299.407z"/>
	<path style="fill:#EDEBED;" d="M360.869,299.407l52.503-45.94c2.851-2.495,7.148-2.352,9.827,0.327l16.828,16.828l-33.439,50.159
		c-5.038,7.557-15.73,8.616-22.152,2.194L360.869,299.407z"/>
	<path style="fill:#EDEBED;" d="M474.265,337.134l31.308-31.308c4.368,7.127,6.744,15.494,6.393,24.25l-5.415,135.195
		c-0.309,7.719-6.656,13.817-14.381,13.817h-30.552V367.665C461.618,356.214,466.167,345.231,474.265,337.134z"/>
	<path style="fill:#EDEBED;" d="M289.973,385.536h33.849c4.563,0,8.262-3.699,8.262-8.262v-5.064c0-4.563-3.699-8.262-8.262-8.262
		h-33.849c-4.563,0-8.262,3.699-8.262,8.262v5.064C281.711,381.837,285.41,385.536,289.973,385.536z"/>
</g>
<path style="fill:#5D5360;" d="M233.162,330.521l-38.824-16.948H64.729l-38.824,16.948c-16.344,7.134-26.62,23.583-25.865,41.4
	l3.958,93.384c0.327,7.705,6.668,13.783,14.38,13.783h222.313c7.712,0,14.053-6.078,14.38-13.783l3.958-93.384
	C259.782,354.104,249.506,337.655,233.162,330.521z"/>
<rect x="93.55" y="263.203" style="fill:#FAD7A5;" width="71.963" height="71.963"/>
<path style="fill:#F0C891;" d="M93.551,284.102c11.01,5.056,23.206,7.882,35.981,7.882c12.776,0,24.971-2.826,35.981-7.882v-20.903
	H93.551V284.102z"/>
<circle style="fill:#DEAF73;" cx="129.53" cy="76.093" r="43.18"/>
<ellipse style="fill:#D59F63;" cx="129.53" cy="151.653" rx="86.36" ry="82.76"/>
<path style="fill:#CD915A;" d="M100.748,162.451C71.963,133.666,67.66,108.85,68.34,93.276
	c-15.547,14.966-25.162,35.595-25.162,58.381c0,15.607,4.526,30.182,12.372,42.622L100.748,162.451z"/>
<path style="fill:#FFE1B4;" d="M211.583,177.144c-0.576-0.187-4.126-0.3-4.126-0.3c-3.817,0-7.478-1.517-10.177-4.216l-6.211-6.211
	c-2.493-2.493-5.787-3.991-9.307-4.188c-14.007-0.784-52.849-4.269-83.709-19.411c-3.294-1.616-7.318-0.735-9.293,2.357
	c-8.084,12.657-18.086,22.7-23.696,27.861c-2.668,2.455-6.131,3.807-9.757,3.807H50.13c-0.004,0-0.007,0.002-0.011,0.002
	c-0.788,0.015-1.594,0.098-2.415,0.256c-7.004,1.353-11.723,8.049-11.723,15.182v5.215c0,6.883,4.407,13.377,11.111,14.942
	c1.51,0.352,2.979,0.452,4.385,0.34c3.578-0.286,6.702,2.318,7.346,5.849c6.118,33.53,35.412,58.961,70.71,58.961
	s64.592-25.431,70.71-58.961c0.644-3.531,3.768-6.135,7.346-5.849c1.407,0.112,2.876,0.012,4.385-0.34
	c6.703-1.565,11.111-8.059,11.111-14.942v-6.557C223.084,184.169,218.025,179.236,211.583,177.144z"/>
<path style="fill:#FAD7A5;" d="M86.355,205.629v-56.881c-7.585,10.958-16.224,19.626-21.291,24.289
	c-2.668,2.455-6.131,3.807-9.757,3.807H50.13c-0.004,0-0.007,0.002-0.011,0.002c-0.788,0.014-1.594,0.098-2.414,0.256
	c-7.004,1.353-11.723,8.049-11.723,15.182v5.215c0,6.883,4.407,13.377,11.111,14.942c1.51,0.352,2.979,0.452,4.385,0.34
	c3.578-0.286,6.702,2.318,7.346,5.849c6.118,33.53,35.412,58.961,70.71,58.961c4.893,0,9.653-0.534,14.27-1.465
	C111.017,269.411,86.355,240.4,86.355,205.629z"/>
<g>
	<path style="fill:#6F6571;" d="M38.698,371.525l-26.294-31.552c-8.175,8.358-12.881,19.795-12.366,31.948l3.958,93.384
		c0.327,7.705,6.668,13.783,14.38,13.783h31.997v-75.314C50.374,391.989,46.242,380.578,38.698,371.525z"/>
	<path style="fill:#6F6571;" d="M220.368,371.525l26.294-31.553c8.175,8.358,12.881,19.795,12.366,31.948l-3.958,93.384
		c-0.327,7.705-6.668,13.783-14.38,13.783h-31.997v-75.314C208.693,391.989,212.824,380.578,220.368,371.525z"/>
	<path style="fill:#6F6571;" d="M177.799,297.073c-2.81-2.81-7.367-2.81-10.177,0l-34.788,34.788c-1.823,1.823-4.779,1.823-6.602,0
		l-34.788-34.788c-2.81-2.81-7.367-2.81-10.177,0l-16.5,16.5l26.627,43.221c2.316,3.759,7.439,4.565,10.798,1.699l15.959-13.618
		c1.648-1.406,4.186-0.235,4.186,1.931v132.282h14.393V346.806c0-2.166,2.538-3.337,4.186-1.931l15.959,13.618
		c3.359,2.866,8.482,2.06,10.798-1.699l26.627-43.221L177.799,297.073z"/>
	<path style="fill:#6F6571;" d="M73.029,421.517h26.653c4.563,0,8.262-3.699,8.262-8.262v-5.064c0-4.563-3.699-8.262-8.262-8.262
		H73.029c-4.563,0-8.262,3.699-8.262,8.262v5.064C64.766,417.818,68.466,421.517,73.029,421.517z"/>
</g>
<g>
</g>
<g>
</g>
<g>
</g>
<g>
</g>
<g>
</g>
<g>
</g>
<g>
</g>
<g>
</g>
<g>
</g>
<g>
</g>
<g>
</g>
<g>
</g>
<g>
</g>
<g>
</g>
<g>
</g>
</svg>
