<!DOCTYPE svg PUBLIC "-//W3C//DTD SVG 20010904//EN" "http://www.w3.org/TR/2001/REC-SVG-20010904/DTD/svg10.dtd">
<svg version="1.0" xmlns="http://www.w3.org/2000/svg" width="278px" height="142px" viewBox="0 0 2780 1420" preserveAspectRatio="xMidYMid meet">
<g id="layerbg1" fill="#1ea3cc" stroke="none">
 <path d="M426 781 c-43 -43 -74 -81 -69 -84 5 -3 44 29 87 72 43 43 74 81 69 84 -5 3 -44 -29 -87 -72z"/>
 </g>
<g id="layerbg2" fill="#26a9e0" stroke="none">
 <path d="M325 862 c-55 -1 -103 -6 -107 -10 -4 -4 62 -77 147 -162 109 -109 156 -150 160 -139 3 8 4 80 3 158 l-3 144 -25 3 c-60 8 -80 9 -175 6z"/>
 </g>
<g id="layerbg3" fill="#008c84" stroke="none">
 <path d="M204 837 c-2 -7 -3 -76 -2 -152 l3 -140 145 -3 c79 -1 151 0 159 3 11 4 -29 50 -134 155 -83 83 -153 150 -158 150 -4 0 -10 -6 -13 -13z"/>
 </g>
<g id="layerbg4" fill="#00a69c" stroke="none">
 <path d="M362 1057 c-188 -188 -342 -349 -342 -357 0 -18 670 -690 688 -690 9 0 12 32 12 128 l0 127 -148 148 -147 147 -103 0 -102 0 0 140 0 140 102 0 101 0 149 147 148 147 0 127 c0 71 -4 130 -8 133 -5 3 -162 -149 -350 -337z"/>
 <path d="M2157 904 c-26 -14 -27 -15 -10 -40 11 -17 23 -24 35 -21 10 3 20 2 22 -2 3 -4 -13 -51 -34 -106 -22 -54 -37 -102 -34 -107 8 -13 60 -10 71 5 6 6 16 29 23 50 14 44 19 42 41 -16 13 -33 22 -43 44 -45 50 -6 50 9 0 137 -60 154 -90 182 -158 145z"/>
 <path d="M670 822 c-42 -23 -46 -33 -22 -62 18 -22 19 -22 50 -6 39 20 72 21 72 1 0 -8 -14 -17 -36 -21 -86 -16 -123 -96 -69 -149 18 -19 35 -25 69 -25 84 0 126 32 91 70 -13 15 -22 17 -36 10 -10 -6 -30 -10 -44 -10 -38 0 -26 23 18 33 86 21 116 101 56 151 -37 32 -98 35 -149 8z"/>
 <path d="M885 827 c-3 -7 -4 -56 -3 -108 l3 -94 65 -2 c41 -1 73 3 85 11 18 12 24 12 40 0 32 -23 83 -17 111 13 23 25 25 33 22 107 l-3 81 -35 0 -35 0 -3 -73 c-3 -69 -4 -73 -25 -70 -20 3 -23 10 -27 73 l-5 70 -35 0 -35 0 -3 -73 c-3 -69 -4 -73 -25 -70 -20 3 -23 10 -27 73 -5 68 -6 70 -33 73 -16 2 -29 -2 -32 -11z"/>
 <path d="M1256 819 c-32 -25 -35 -70 -5 -100 20 -20 20 -21 3 -40 -16 -18 -16 -21 -1 -36 9 -10 39 -18 71 -21 49 -4 57 -2 81 22 24 24 26 31 23 108 l-3 83 -71 2 c-60 2 -76 -1 -98 -18z"/>
 <path d="M1465 827 c-3 -7 -4 -56 -3 -108 l3 -94 75 0 75 0 5 -30 c5 -27 9 -30 40 -30 31 0 35 3 38 27 2 19 10 28 25 30 32 4 31 52 0 56 -20 3 -23 9 -23 49 0 41 2 45 21 40 15 -4 23 1 32 20 9 21 8 27 -8 39 -29 22 -73 17 -100 -11 -20 -20 -25 -34 -25 -78 0 -60 -5 -70 -29 -57 -9 5 -24 11 -33 14 -13 4 -18 19 -20 73 l-3 68 -33 3 c-20 2 -34 -2 -37 -11z"/>
 <path d="M1885 828 c-3 -8 -4 -70 -3 -139 l3 -124 35 0 35 0 3 53 3 52 39 0 39 0 3 -52 3 -53 35 0 35 0 0 135 0 135 -35 0 c-35 0 -35 0 -38 -47 l-3 -48 -39 0 -39 0 -3 48 c-3 45 -4 47 -36 50 -20 2 -34 -2 -37 -10z"/>
 <path d="M2375 827 c-3 -7 -4 -56 -3 -108 l3 -94 65 0 c63 0 65 1 68 27 3 21 -3 29 -25 40 -25 12 -28 19 -33 78 -5 65 -5 65 -38 68 -20 2 -34 -2 -37 -11z"/>
 <path d="M2551 811 c-54 -50 -43 -144 21 -177 73 -38 156 4 161 81 2 35 -1 40 -21 43 -22 3 -23 5 -8 27 15 23 15 25 -13 40 -49 25 -104 20 -140 -14z"/>
 </g>
<g id="layer101" fill="#1ea3cc" stroke="none">
 <path d="M430 775 c-41 -41 -72 -75 -69 -75 2 0 38 34 79 75 41 41 72 75 69 75 -2 0 -38 -34 -79 -75z"/>
 </g>
<g id="layer102" fill="#26a9e0" stroke="none">
 <path d="M322 850 l-103 -5 71 -70 70 -69 70 69 c38 38 68 70 67 71 -9 6 -88 8 -175 4z"/>
 <path d="M440 775 l-75 -75 78 -78 77 -77 0 153 c0 83 -1 152 -3 152 -1 0 -36 -34 -77 -75z"/>
 </g>
<g id="layer103" fill="#008c84" stroke="none">
 <path d="M210 695 l0 -145 152 0 153 0 -145 145 c-80 80 -148 145 -152 145 -5 0 -8 -65 -8 -145z"/>
 </g>
<g id="layer104" fill="#00a69c" stroke="none">
 <path d="M360 1045 l-345 -345 348 -348 347 -347 0 130 0 130 -143 143 -142 142 -108 0 -108 0 3 148 3 147 108 5 107 5 140 140 141 141 -3 127 -3 127 -345 -345z"/>
 <path d="M2163 897 c-19 -11 -20 -14 -8 -31 8 -10 21 -16 29 -13 36 14 35 -19 -5 -118 -21 -55 -39 -101 -39 -103 0 -2 14 -2 31 0 28 3 34 9 51 56 11 29 23 50 28 47 4 -3 16 -27 26 -55 16 -44 21 -50 46 -50 15 0 28 3 28 7 0 4 -21 60 -46 125 -55 142 -82 168 -141 135z"/>
 <path d="M673 814 c-37 -18 -39 -23 -20 -48 13 -17 15 -17 46 -2 41 22 76 18 76 -9 0 -14 -11 -22 -44 -32 -24 -7 -52 -20 -62 -29 -26 -23 -25 -78 2 -105 18 -18 30 -21 80 -17 68 5 90 19 72 46 -6 9 -17 15 -25 13 -7 -2 -30 -6 -50 -9 -33 -4 -38 -1 -38 17 0 16 10 23 44 32 59 15 86 41 86 84 0 66 -89 97 -167 59z"/>
 <path d="M890 730 l0 -100 25 0 c14 0 25 5 25 12 0 9 3 9 12 0 16 -16 60 -15 83 2 17 12 22 12 39 0 31 -21 82 -17 106 8 17 18 20 35 20 100 l0 78 -30 0 -29 0 -3 -72 c-3 -68 -5 -73 -27 -76 -32 -5 -41 12 -41 86 l0 62 -30 0 -30 0 0 -70 c0 -56 -3 -72 -16 -77 -34 -13 -49 11 -52 81 -3 63 -4 66 -27 66 -25 0 -25 0 -25 -100z"/>
 <path d="M1262 814 c-26 -18 -30 -65 -7 -87 7 -8 34 -18 60 -21 25 -4 45 -11 45 -16 0 -15 -36 -21 -63 -11 -19 8 -28 6 -38 -5 -19 -23 2 -37 65 -42 45 -4 57 -1 75 17 18 18 21 33 21 101 0 79 0 80 -25 80 -14 0 -25 -5 -25 -12 0 -9 -3 -9 -12 0 -17 17 -69 15 -96 -4z m86 -36 c18 -18 15 -38 -5 -38 -28 0 -47 16 -40 34 8 19 28 21 45 4z"/>
 <path d="M1470 730 l0 -100 30 0 c17 0 30 5 30 12 0 9 3 9 12 0 22 -22 48 -14 48 13 0 17 -5 25 -18 25 -31 0 -42 22 -42 87 l0 63 -30 0 -30 0 0 -100z"/>
 <path d="M1650 810 c-16 -16 -20 -33 -20 -80 0 -33 -4 -60 -10 -60 -5 0 -10 -9 -10 -20 0 -11 5 -20 10 -20 6 0 10 -13 10 -30 0 -27 3 -30 30 -30 27 0 30 3 30 30 0 25 4 30 25 30 18 0 25 5 25 20 0 15 -7 20 -25 20 -24 0 -25 3 -25 56 0 55 1 56 25 52 18 -4 26 0 31 15 12 39 -61 52 -96 17z"/>
 <path d="M1890 700 l0 -130 30 0 c30 0 30 1 30 55 l0 55 50 0 50 0 0 -55 c0 -54 0 -55 30 -55 l30 0 0 130 0 130 -30 0 c-29 0 -30 -1 -30 -50 l0 -50 -50 0 -50 0 0 50 c0 49 -1 50 -30 50 l-30 0 0 -130z"/>
 <path d="M2380 730 l0 -100 30 0 c17 0 30 5 30 10 0 7 6 7 19 0 31 -16 41 -12 41 15 0 15 -6 25 -14 25 -31 0 -46 30 -46 91 0 59 0 59 -30 59 l-30 0 0 -100z"/>
 <path d="M2556 805 c-47 -44 -36 -138 21 -164 67 -31 137 2 149 71 l6 37 -78 3 -79 3 26 18 c21 14 32 15 54 7 23 -9 30 -7 40 7 33 44 -93 60 -139 18z m108 -109 c-9 -23 -35 -28 -60 -11 -13 9 -24 18 -24 20 0 3 20 5 45 5 34 0 43 -3 39 -14z"/>
 </g>
<g id="layer105" fill="#ffffff" stroke="none">
 <path d="M0 710 l0 -710 1390 0 1390 0 0 710 0 710 -1390 0 -1390 0 0 -710z m575 290 c-74 -74 -135 -139 -135 -143 0 -4 18 -7 40 -7 l40 0 0 -150 0 -150 -47 0 -48 0 143 -143 142 -142 0 -130 0 -130 -347 347 -348 348 345 345 345 345 3 -127 3 -127 -136 -136z m1662 -105 c18 -12 113 -230 113 -258 0 -4 -13 -7 -28 -7 -25 0 -30 6 -46 50 -10 28 -22 52 -26 55 -5 3 -17 -18 -28 -47 -17 -47 -23 -53 -51 -56 -17 -2 -31 -2 -31 0 0 2 18 48 39 103 40 99 41 132 5 118 -8 -3 -21 3 -29 13 -12 17 -11 20 8 31 29 16 48 16 74 -2z m-1423 -86 c19 -15 26 -30 26 -54 0 -43 -27 -69 -86 -84 -34 -9 -44 -16 -44 -32 0 -18 5 -21 38 -17 20 3 43 7 50 9 8 2 19 -4 25 -13 18 -27 -4 -41 -72 -46 -50 -4 -62 -1 -80 17 -27 27 -28 82 -2 105 10 9 38 22 62 29 33 10 44 18 44 32 0 27 -35 31 -76 9 -31 -15 -33 -15 -46 2 -19 25 -17 30 20 48 46 22 109 21 141 -5z m128 -45 c3 -70 18 -94 52 -81 13 5 16 21 16 77 l0 70 30 0 30 0 0 -62 c0 -74 9 -91 41 -86 22 3 24 8 27 76 l3 72 29 0 30 0 0 -78 c0 -65 -3 -82 -20 -100 -24 -25 -75 -29 -106 -8 -17 12 -22 12 -39 0 -23 -17 -67 -18 -83 -2 -9 9 -12 9 -12 0 0 -7 -11 -12 -25 -12 l-25 0 0 100 c0 100 0 100 25 100 23 0 24 -3 27 -66z m416 54 c9 -9 12 -9 12 0 0 7 11 12 25 12 25 0 25 -1 25 -80 0 -68 -3 -83 -21 -101 -18 -18 -30 -21 -75 -17 -63 5 -84 19 -65 42 10 11 19 13 38 5 27 -10 63 -4 63 11 0 5 -20 12 -45 16 -26 3 -53 13 -60 21 -23 22 -19 69 7 87 27 19 79 21 96 4z m172 -51 c0 -65 11 -87 42 -87 13 0 18 -8 18 -25 0 -27 -26 -35 -48 -13 -9 9 -12 9 -12 0 0 -7 -13 -12 -30 -12 l-30 0 0 100 0 100 30 0 30 0 0 -63z m209 54 c8 -5 11 -16 7 -28 -5 -15 -13 -19 -31 -15 -24 4 -25 3 -25 -52 0 -53 1 -56 25 -56 18 0 25 -5 25 -20 0 -15 -7 -20 -25 -20 -21 0 -25 -5 -25 -30 0 -27 -3 -30 -30 -30 -27 0 -30 3 -30 30 0 17 -4 30 -10 30 -5 0 -10 9 -10 20 0 11 5 20 10 20 6 0 10 27 10 60 0 47 4 64 20 80 21 21 65 26 89 11z m211 -41 l0 -50 50 0 50 0 0 50 c0 49 1 50 30 50 l30 0 0 -130 0 -130 -30 0 c-30 0 -30 1 -30 55 l0 55 -50 0 -50 0 0 -55 c0 -54 0 -55 -30 -55 l-30 0 0 130 0 130 30 0 c29 0 30 -1 30 -50z m490 -9 c0 -61 15 -91 46 -91 8 0 14 -10 14 -25 0 -27 -10 -31 -41 -15 -13 7 -19 7 -19 0 0 -5 -13 -10 -30 -10 l-30 0 0 100 0 100 30 0 c30 0 30 0 30 -59z m247 46 c18 -10 20 -14 8 -30 -10 -14 -17 -16 -40 -7 -22 8 -33 7 -54 -7 l-26 -18 79 -3 78 -3 -6 -37 c-12 -69 -82 -102 -149 -71 -57 26 -68 120 -21 164 30 28 93 33 131 12z"/>
 <path d="M1303 774 c-7 -18 12 -34 40 -34 20 0 23 20 5 38 -17 17 -37 15 -45 -4z"/>
 <path d="M2580 705 c0 -2 11 -11 24 -20 25 -17 51 -12 60 11 4 11 -5 14 -39 14 -25 0 -45 -2 -45 -5z"/>
 </g>

</svg>