<?xml version="1.0" encoding="iso-8859-1"?>
<!-- Generator: Adobe Illustrator 19.0.0, SVG Export Plug-In . SVG Version: 6.00 Build 0)  -->
<svg version="1.1" id="Capa_1" xmlns="http://www.w3.org/2000/svg" xmlns:xlink="http://www.w3.org/1999/xlink" x="0px" y="0px"
	 viewBox="0 0 512 512" style="enable-background:new 0 0 512 512;" xml:space="preserve">
<path style="fill:#3C6EAA;" d="M111.034,110.541c-4.147,0-7.508-3.36-7.508-7.508V56.426c0-4.147,3.36-7.508,7.508-7.508
	c4.147,0,7.508,3.36,7.508,7.508v46.608C118.541,107.181,115.181,110.541,111.034,110.541z"/>
<path style="fill:#4E8AD1;" d="M325.764,252.679h-83.957V95.02c0-4.423,3.586-8.008,8.008-8.008h67.94
	c4.423,0,8.008,3.586,8.008,8.008V252.679z"/>
<g>
	<rect x="241.809" y="117.241" style="fill:#3C6EAA;" width="83.957" height="135.44"/>
	<path style="fill:#3C6EAA;" d="M325.764,252.679h-21.766V87.012h13.758c4.423,0,8.008,3.586,8.008,8.008V252.679z"/>
</g>
<path style="fill:#4E8AD1;" d="M337.229,455.575H178.644V140.46c0-4.423,3.586-8.008,8.008-8.008h142.568
	c4.423,0,8.008,3.586,8.008,8.008V455.575z"/>
<path style="fill:#3C6EAA;" d="M205.351,455.575h-26.488V182.541h12.155c7.916,0,14.334,6.418,14.334,14.334V455.575z"/>
<g>
	<path style="fill:#365889;" d="M365.358,172.476c-4.147,0-7.508-3.36-7.508-7.508v-22.676c0-4.147,3.36-7.508,7.508-7.508
		c4.147,0,7.508,3.36,7.508,7.508v22.676C372.866,169.115,369.505,172.476,365.358,172.476z"/>
	<path style="fill:#365889;" d="M448.458,172.476c-4.147,0-7.508-3.36-7.508-7.508v-22.676c0-4.147,3.36-7.508,7.508-7.508
		s7.508,3.36,7.508,7.508v22.676C455.966,169.115,452.605,172.476,448.458,172.476z"/>
</g>
<path style="fill:#3C6EAA;" d="M476.443,172.017v283.559H333.276v-290.61h136.117C473.287,164.967,476.443,168.123,476.443,172.017z
	"/>
<rect x="333.274" y="164.971" style="fill:#365889;" width="13.496" height="290.61"/>
<path style="fill:#3C6EAA;" d="M337.229,455.575h-22.93V132.452h14.921c4.423,0,8.008,3.586,8.008,8.008V455.575z"/>
<g>
	<path style="fill:#FFDF78;" d="M239.772,254.531h-14.985c-2.764,0-5.005-2.241-5.005-5.005V234.54c0-2.764,2.241-5.005,5.005-5.005
		h14.985c2.764,0,5.005,2.241,5.005,5.005v14.985C244.777,252.29,242.536,254.531,239.772,254.531z"/>
	<path style="fill:#FFDF78;" d="M290.108,254.531h-14.985c-2.764,0-5.005-2.241-5.005-5.005V234.54c0-2.764,2.241-5.005,5.005-5.005
		h14.985c2.764,0,5.005,2.241,5.005,5.005v14.985C295.113,252.29,292.872,254.531,290.108,254.531z"/>
	<path style="fill:#FFDF78;" d="M239.772,203.48h-14.985c-2.764,0-5.005-2.241-5.005-5.005V183.49c0-2.764,2.241-5.005,5.005-5.005
		h14.985c2.764,0,5.005,2.241,5.005,5.005v14.985C244.777,201.239,242.536,203.48,239.772,203.48z"/>
	<path style="fill:#FFDF78;" d="M290.108,203.48h-14.985c-2.764,0-5.005-2.241-5.005-5.005V183.49c0-2.764,2.241-5.005,5.005-5.005
		h14.985c2.764,0,5.005,2.241,5.005,5.005v14.985C295.113,201.239,292.872,203.48,290.108,203.48z"/>
	<path style="fill:#FFDF78;" d="M239.772,305.193h-14.985c-2.764,0-5.005-2.241-5.005-5.005v-14.985
		c0-2.764,2.241-5.005,5.005-5.005h14.985c2.764,0,5.005,2.241,5.005,5.005v14.985C244.777,302.953,242.536,305.193,239.772,305.193
		z"/>
	<path style="fill:#FFDF78;" d="M290.108,305.193h-14.985c-2.764,0-5.005-2.241-5.005-5.005v-14.985
		c0-2.764,2.241-5.005,5.005-5.005h14.985c2.764,0,5.005,2.241,5.005,5.005v14.985C295.113,302.953,292.872,305.193,290.108,305.193
		z"/>
	<path style="fill:#FFDF78;" d="M239.772,355.857h-14.985c-2.764,0-5.005-2.241-5.005-5.005v-14.985
		c0-2.764,2.241-5.005,5.005-5.005h14.985c2.764,0,5.005,2.241,5.005,5.005v14.985C244.777,353.615,242.536,355.857,239.772,355.857
		z"/>
	<path style="fill:#FFDF78;" d="M290.108,355.857h-14.985c-2.764,0-5.005-2.241-5.005-5.005v-14.985
		c0-2.764,2.241-5.005,5.005-5.005h14.985c2.764,0,5.005,2.241,5.005,5.005v14.985C295.113,353.615,292.872,355.857,290.108,355.857
		z"/>
	<path style="fill:#FFDF78;" d="M239.772,406.52h-14.985c-2.764,0-5.005-2.241-5.005-5.005v-14.985c0-2.764,2.241-5.005,5.005-5.005
		h14.985c2.764,0,5.005,2.241,5.005,5.005v14.985C244.777,404.278,242.536,406.52,239.772,406.52z"/>
	<path style="fill:#FFDF78;" d="M290.108,406.52h-14.985c-2.764,0-5.005-2.241-5.005-5.005v-14.985c0-2.764,2.241-5.005,5.005-5.005
		h14.985c2.764,0,5.005,2.241,5.005,5.005v14.985C295.113,404.278,292.872,406.52,290.108,406.52z"/>
</g>
<path style="fill:#699FCC;" d="M131.246,213.422H90.823V111.043c0-4.423,3.586-8.008,8.008-8.008h24.407
	c4.423,0,8.008,3.586,8.008,8.008V213.422z"/>
<path style="fill:#91BAE1;" d="M153.013,252.679H69.056V150.3c0-4.423,3.586-8.008,8.008-8.008h67.94
	c4.423,0,8.008,3.586,8.008,8.008V252.679z"/>
<g>
	<rect x="69.056" y="176.743" style="fill:#699FCC;" width="83.957" height="75.939"/>
	<path style="fill:#699FCC;" d="M153.013,252.679h-21.766V142.292h13.758c4.423,0,8.008,3.586,8.008,8.008V252.679z"/>
</g>
<path style="fill:#91BAE1;" d="M190.327,455.575H31.742V205.493c0-4.423,3.586-8.008,8.008-8.008h142.568
	c4.423,0,8.008,3.586,8.008,8.008v250.082H190.327z"/>
<path style="fill:#699FCC;" d="M190.327,455.575h-22.93v-258.09h14.921c4.423,0,8.008,3.586,8.008,8.008V455.575z"/>
<g>
	<path style="fill:#FFDF78;" d="M93.139,263.253H78.154c-2.764,0-5.005-2.241-5.005-5.005v-14.985c0-2.764,2.241-5.005,5.005-5.005
		h14.985c2.764,0,5.005,2.241,5.005,5.005v14.985C98.144,261.013,95.904,263.253,93.139,263.253z"/>
	<path style="fill:#FFDF78;" d="M143.475,263.253H128.49c-2.764,0-5.005-2.241-5.005-5.005v-14.985c0-2.764,2.241-5.005,5.005-5.005
		h14.985c2.764,0,5.005,2.241,5.005,5.005v14.985C148.48,261.013,146.24,263.253,143.475,263.253z"/>
	<path style="fill:#FFDF78;" d="M93.139,313.916H78.154c-2.764,0-5.005-2.241-5.005-5.005v-14.985c0-2.764,2.241-5.005,5.005-5.005
		h14.985c2.764,0,5.005,2.241,5.005,5.005v14.985C98.144,311.675,95.904,313.916,93.139,313.916z"/>
	<path style="fill:#FFDF78;" d="M143.475,313.916H128.49c-2.764,0-5.005-2.241-5.005-5.005v-14.985c0-2.764,2.241-5.005,5.005-5.005
		h14.985c2.764,0,5.005,2.241,5.005,5.005v14.985C148.48,311.675,146.24,313.916,143.475,313.916z"/>
	<path style="fill:#FFDF78;" d="M93.139,364.579H78.154c-2.764,0-5.005-2.241-5.005-5.005v-14.985c0-2.764,2.241-5.005,5.005-5.005
		h14.985c2.764,0,5.005,2.241,5.005,5.005v14.985C98.144,362.338,95.904,364.579,93.139,364.579z"/>
	<path style="fill:#FFDF78;" d="M143.475,364.579H128.49c-2.764,0-5.005-2.241-5.005-5.005v-14.985c0-2.764,2.241-5.005,5.005-5.005
		h14.985c2.764,0,5.005,2.241,5.005,5.005v14.985C148.48,362.338,146.24,364.579,143.475,364.579z"/>
	<path style="fill:#FFDF78;" d="M93.139,415.242H78.154c-2.764,0-5.005-2.241-5.005-5.005v-14.985c0-2.764,2.241-5.005,5.005-5.005
		h14.985c2.764,0,5.005,2.241,5.005,5.005v14.985C98.144,413.001,95.904,415.242,93.139,415.242z"/>
	<path style="fill:#FFDF78;" d="M143.475,415.242H128.49c-2.764,0-5.005-2.241-5.005-5.005v-14.985c0-2.764,2.241-5.005,5.005-5.005
		h14.985c2.764,0,5.005,2.241,5.005,5.005v14.985C148.48,413.001,146.24,415.242,143.475,415.242z"/>
</g>
<path style="fill:#365889;" d="M476.445,455.575h-16.909V164.969h9.859c3.894,0,7.05,3.156,7.05,7.05V455.575z"/>
<g>
	<path style="fill:#FFDF78;" d="M390.045,254.531H375.06c-2.764,0-5.005-2.241-5.005-5.005V234.54c0-2.764,2.241-5.005,5.005-5.005
		h14.985c2.764,0,5.005,2.241,5.005,5.005v14.985C395.05,252.29,392.81,254.531,390.045,254.531z"/>
	<path style="fill:#FFDF78;" d="M440.381,254.531h-14.985c-2.764,0-5.005-2.241-5.005-5.005V234.54c0-2.764,2.241-5.005,5.005-5.005
		h14.985c2.764,0,5.005,2.241,5.005,5.005v14.985C445.386,252.29,443.146,254.531,440.381,254.531z"/>
	<path style="fill:#FFDF78;" d="M390.045,305.193H375.06c-2.764,0-5.005-2.241-5.005-5.005v-14.985c0-2.764,2.241-5.005,5.005-5.005
		h14.985c2.764,0,5.005,2.241,5.005,5.005v14.985C395.05,302.953,392.81,305.193,390.045,305.193z"/>
	<path style="fill:#FFDF78;" d="M440.381,305.193h-14.985c-2.764,0-5.005-2.241-5.005-5.005v-14.985
		c0-2.764,2.241-5.005,5.005-5.005h14.985c2.764,0,5.005,2.241,5.005,5.005v14.985C445.386,302.953,443.146,305.193,440.381,305.193
		z"/>
	<path style="fill:#FFDF78;" d="M390.045,355.857H375.06c-2.764,0-5.005-2.241-5.005-5.005v-14.985c0-2.764,2.241-5.005,5.005-5.005
		h14.985c2.764,0,5.005,2.241,5.005,5.005v14.985C395.05,353.615,392.81,355.857,390.045,355.857z"/>
	<path style="fill:#FFDF78;" d="M440.381,355.857h-14.985c-2.764,0-5.005-2.241-5.005-5.005v-14.985
		c0-2.764,2.241-5.005,5.005-5.005h14.985c2.764,0,5.005,2.241,5.005,5.005v14.985C445.386,353.615,443.146,355.857,440.381,355.857
		z"/>
	<path style="fill:#FFDF78;" d="M390.045,406.52H375.06c-2.764,0-5.005-2.241-5.005-5.005v-14.985c0-2.764,2.241-5.005,5.005-5.005
		h14.985c2.764,0,5.005,2.241,5.005,5.005v14.985C395.05,404.278,392.81,406.52,390.045,406.52z"/>
	<path style="fill:#FFDF78;" d="M440.381,406.52h-14.985c-2.764,0-5.005-2.241-5.005-5.005v-14.985c0-2.764,2.241-5.005,5.005-5.005
		h14.985c2.764,0,5.005,2.241,5.005,5.005v14.985C445.386,404.278,443.146,406.52,440.381,406.52z"/>
</g>
<path style="fill:#6BDDC0;" d="M456.958,142.292H356.857c-4.415,0-7.993-3.579-7.993-7.993v-34.11c0-4.415,3.579-7.993,7.993-7.993
	h100.101c4.415,0,7.993,3.579,7.993,7.993v34.11C464.951,138.714,461.373,142.292,456.958,142.292z"/>
<path style="fill:#365889;" d="M504.492,463.082H7.508c-4.147,0-7.508-3.36-7.508-7.508c0-4.147,3.36-7.508,7.508-7.508h496.984
	c4.147,0,7.508,3.36,7.508,7.508C512,459.722,508.64,463.082,504.492,463.082z"/>
<g>
</g>
<g>
</g>
<g>
</g>
<g>
</g>
<g>
</g>
<g>
</g>
<g>
</g>
<g>
</g>
<g>
</g>
<g>
</g>
<g>
</g>
<g>
</g>
<g>
</g>
<g>
</g>
<g>
</g>
</svg>
